<?xml version="1.0" standalone="no"?>
<!DOCTYPE svg PUBLIC "-//W3C//DTD SVG 20010904//EN"
 "http://www.w3.org/TR/2001/REC-SVG-20010904/DTD/svg10.dtd">
<svg version="1.0" xmlns="http://www.w3.org/2000/svg"
 width="216.000000pt" height="216.000000pt" viewBox="0 0 216.000000 216.000000"
 preserveAspectRatio="xMidYMid meet">
<metadata>
Created by potrace 1.14, written by Peter Selinger 2001-2017
</metadata>
<g transform="translate(0.000000,216.000000) scale(0.100000,-0.100000)"
fill="#000000" stroke="none">
<path d="M330 1700 c-8 -11 -20 -20 -27 -20 -19 0 -123 -106 -123 -125 0 -8
-4 -15 -10 -15 -5 0 -10 -9 -10 -20 0 -11 -4 -20 -10 -20 -5 0 -10 -9 -10 -20
0 -11 -4 -20 -10 -20 -15 0 -12 -70 4 -86 17 -16 126 -20 126 -4 0 6 23 10 50
10 28 0 50 -2 50 -5 0 -13 -71 -75 -85 -75 -8 0 -15 -4 -15 -10 0 -5 -9 -10
-20 -10 -11 0 -20 -4 -20 -10 0 -5 -13 -10 -30 -10 -28 0 -30 -2 -30 -40 0
-22 5 -40 10 -40 6 0 10 -9 10 -20 0 -13 7 -20 20 -20 11 0 20 5 20 10 0 6 9
10 20 10 11 0 20 5 20 10 0 6 9 10 20 10 11 0 20 5 20 10 0 6 9 10 20 10 11 0
20 5 20 10 0 6 7 10 15 10 20 0 105 85 105 105 0 8 5 15 10 15 16 0 12 89 -4
106 -17 16 -126 20 -126 4 0 -5 -18 -10 -40 -10 -22 0 -40 -4 -40 -10 0 -5 -9
-10 -20 -10 -11 0 -20 7 -20 15 0 19 64 85 82 85 8 0 20 9 28 20 8 11 25 20
38 20 13 0 30 6 38 14 16 17 19 66 4 66 -5 0 -10 12 -10 26 0 49 -44 70 -70
34z"/>
<path d="M1530 1700 c-8 -11 -20 -20 -28 -20 -32 0 -57 -53 -29 -63 7 -2 -5
-20 -30 -45 -35 -33 -43 -47 -43 -76 0 -20 5 -36 10 -36 6 0 10 -13 10 -30 0
-16 5 -30 10 -30 6 0 10 -13 10 -30 0 -16 5 -30 10 -30 6 0 10 -12 10 -26 0
-29 31 -67 38 -46 2 6 11 12 21 12 9 0 23 9 31 20 8 11 20 20 28 20 22 0 42
26 42 54 0 22 -5 26 -28 26 -16 0 -34 -8 -42 -20 -20 -27 -30 -25 -30 6 0 29
21 54 44 54 21 0 20 27 -1 48 -12 12 -18 13 -21 4 -2 -6 -12 -12 -23 -12 -10
0 -19 -4 -19 -10 0 -5 -4 -10 -10 -10 -5 0 -10 23 -10 50 0 41 3 50 18 50 10
0 24 9 32 20 21 29 50 26 50 -5 0 -14 11 -37 25 -50 13 -14 36 -25 50 -25 25
0 25 -1 25 -80 0 -73 -2 -80 -20 -80 -11 0 -20 -4 -20 -10 0 -5 -9 -10 -20
-10 -16 0 -20 -7 -20 -35 0 -28 8 -44 37 -72 22 -23 38 -32 41 -25 2 7 12 12
23 12 10 0 19 5 19 10 0 6 14 10 30 10 17 0 30 5 30 10 0 6 14 10 30 10 17 0
30 5 30 10 0 6 14 10 30 10 17 0 30 5 30 10 0 6 14 10 30 10 17 0 30 5 30 10
0 6 12 10 26 10 34 0 54 22 54 60 0 38 -20 60 -54 60 -26 0 -26 1 -26 80 0 79
0 80 26 80 14 0 32 6 40 14 18 19 18 93 0 112 -17 16 -66 19 -66 4 0 -5 -22
-10 -50 -10 -27 0 -50 -4 -50 -10 0 -5 -18 -10 -40 -10 -22 0 -40 -4 -40 -10
0 -5 -18 -10 -40 -10 -22 0 -40 -4 -40 -10 0 -5 -16 -10 -36 -10 -35 0 -64 18
-64 40 0 16 -26 40 -42 40 -8 0 -20 -9 -28 -20z m470 -40 c0 -36 -2 -40 -26
-40 -46 0 -54 -19 -54 -134 0 -99 1 -106 20 -106 11 0 20 5 20 10 0 6 9 10 20
10 16 0 20 -7 20 -30 0 -27 -3 -30 -30 -30 -16 0 -30 -4 -30 -10 0 -5 -13 -10
-30 -10 -16 0 -30 -4 -30 -10 0 -5 -13 -10 -30 -10 -16 0 -30 -4 -30 -10 0 -5
-13 -10 -30 -10 -16 0 -30 -4 -30 -10 0 -5 -13 -10 -30 -10 -16 0 -30 -4 -30
-10 0 -15 -49 -12 -66 4 -28 28 -5 66 40 66 l26 0 0 110 0 110 -36 0 c-38 0
-64 18 -64 44 0 9 8 16 20 16 11 0 20 5 20 10 0 6 18 10 40 10 22 0 40 5 40
10 0 6 18 10 40 10 22 0 40 5 40 10 0 6 18 10 40 10 22 0 40 5 40 10 0 6 18
10 40 10 22 0 40 5 40 10 0 6 9 10 20 10 17 0 20 -7 20 -40z"/>
<path d="M1820 1590 c0 -5 -13 -10 -30 -10 l-30 0 0 -120 c0 -113 1 -120 20
-120 11 0 20 5 20 10 0 6 7 10 16 10 36 0 44 25 44 134 0 99 -1 106 -20 106
-11 0 -20 -4 -20 -10z m20 -130 c0 -73 -2 -80 -20 -80 -18 0 -20 7 -20 80 0
73 2 80 20 80 18 0 20 -7 20 -80z"/>
<path d="M1000 1690 c0 -5 -9 -10 -20 -10 -11 0 -20 -4 -20 -10 0 -5 -7 -10
-16 -10 -20 0 -44 -24 -44 -44 0 -9 -4 -16 -10 -16 -5 0 -10 -9 -10 -20 0 -11
-4 -20 -10 -20 -5 0 -10 -13 -10 -30 0 -16 -4 -30 -10 -30 -5 0 -10 -9 -10
-20 0 -11 -4 -20 -10 -20 -5 0 -10 -18 -10 -40 0 -22 -4 -40 -10 -40 -5 0 -10
-18 -10 -40 0 -33 -3 -40 -20 -40 -13 0 -20 -7 -20 -20 0 -15 7 -20 29 -20 16
0 32 -6 35 -12 5 -10 7 -10 12 0 3 6 12 12 21 12 22 0 43 26 43 54 0 22 4 26
30 26 17 0 30 5 30 10 0 6 14 10 30 10 21 0 30 -5 30 -16 0 -22 32 -53 38 -36
2 6 17 12 33 12 26 0 29 4 29 30 0 17 -4 30 -10 30 -5 0 -10 9 -10 20 0 13 7
20 20 20 11 0 20 5 20 10 0 6 9 10 20 10 16 0 20 7 20 30 0 17 -4 30 -10 30
-5 0 -10 9 -10 20 0 11 -4 20 -10 20 -5 0 -10 -4 -10 -10 0 -5 -9 -10 -20 -10
-11 0 -20 -4 -20 -10 0 -5 -9 -10 -20 -10 -16 0 -20 7 -20 30 0 17 -4 30 -10
30 -5 0 -10 23 -10 50 0 28 -4 50 -10 50 -5 0 -10 9 -10 20 0 11 -4 20 -10 20
-5 0 -10 -4 -10 -10z m-20 -180 c0 -16 5 -30 10 -30 15 0 12 -29 -4 -46 -8 -8
-22 -14 -30 -14 -9 0 -16 -4 -16 -10 0 -5 -4 -10 -10 -10 -5 0 -10 14 -10 30
0 17 5 30 10 30 6 0 10 11 10 25 0 25 17 54 33 55 4 0 7 -13 7 -30z"/>
<path d="M1170 1680 c-8 -11 -20 -20 -28 -20 -7 0 -20 -6 -28 -14 -16 -17 -19
-46 -4 -46 6 0 10 -9 10 -20 0 -16 7 -20 30 -20 27 0 30 -3 30 -30 0 -16 5
-30 10 -30 6 0 10 -18 10 -40 0 -33 -3 -40 -20 -40 -17 0 -20 -7 -20 -50 0
-27 5 -50 10 -50 6 0 10 -9 10 -20 0 -16 7 -20 30 -20 17 0 30 -4 30 -10 0 -5
5 -10 10 -10 6 0 10 23 10 50 0 28 3 50 6 50 3 0 23 -18 45 -41 l39 -40 25 25
c14 14 25 30 25 36 0 7 -18 29 -40 50 -22 21 -40 44 -40 50 0 7 14 25 30 40
17 15 30 33 30 40 0 6 18 29 41 51 l40 39 -35 35 -36 36 -25 -25 c-14 -14 -25
-30 -25 -36 0 -10 -85 -100 -95 -100 -3 0 -5 18 -5 40 0 22 -4 40 -10 40 -5 0
-10 23 -10 50 0 41 -3 50 -18 50 -10 0 -24 -9 -32 -20z"/>
<path d="M733 1665 c-7 -8 -13 -26 -13 -40 0 -14 -4 -25 -10 -25 -6 0 -10 -37
-10 -90 0 -53 -4 -90 -10 -90 -5 0 -10 9 -10 20 0 11 -4 20 -10 20 -5 0 -10 9
-10 20 0 11 -4 20 -10 20 -5 0 -10 14 -10 30 0 17 -4 30 -10 30 -5 0 -10 9
-10 20 0 11 -4 20 -10 20 -5 0 -10 14 -10 30 0 27 -3 30 -30 30 -16 0 -30 -4
-30 -10 0 -5 -13 -10 -30 -10 -29 0 -30 -1 -30 -50 0 -27 -4 -50 -10 -50 -18
0 -11 -55 10 -70 16 -12 20 -26 20 -72 0 -32 -4 -58 -10 -58 -5 0 -10 -8 -10
-18 0 -10 -9 -24 -20 -32 -11 -8 -20 -22 -20 -32 0 -11 7 -18 20 -18 11 0 20
5 20 10 0 6 9 10 20 10 11 0 20 5 20 10 0 6 9 10 20 10 19 0 20 7 20 100 0 60
4 100 10 100 6 0 10 -9 10 -20 0 -11 5 -20 10 -20 6 0 10 -8 10 -18 0 -10 9
-24 20 -32 11 -8 20 -22 20 -32 0 -10 5 -18 10 -18 6 0 10 -9 10 -20 0 -16 7
-20 30 -20 17 0 30 5 30 10 0 6 14 10 30 10 27 0 30 3 30 30 0 17 5 30 10 30
6 0 10 40 10 100 0 60 4 100 10 100 6 0 10 23 10 50 l0 50 -37 0 c-21 -1 -44
-7 -50 -15z"/>
<path d="M1080 1290 c0 -5 -8 -10 -18 -10 -10 0 -24 -9 -32 -20 -8 -11 -26
-20 -41 -20 -15 0 -30 -6 -33 -12 -5 -10 -7 -10 -12 0 -8 17 -72 15 -90 -2
-17 -18 -19 -63 -2 -68 9 -3 8 -10 -5 -22 -10 -10 -21 -15 -25 -11 -4 4 -1 10
6 12 6 3 12 9 12 14 0 5 -54 9 -120 9 -73 0 -120 -4 -120 -10 0 -5 -13 -10
-30 -10 -16 0 -30 -4 -30 -10 0 -5 -13 -10 -30 -10 -16 0 -30 -4 -30 -10 0 -5
-13 -10 -30 -10 -16 0 -30 -4 -30 -10 0 -5 -11 -10 -25 -10 -34 0 -95 -61 -95
-95 0 -14 -4 -25 -10 -25 -5 0 -10 -9 -10 -20 0 -13 -7 -20 -20 -20 -11 0 -20
-4 -20 -10 0 -5 -7 -10 -15 -10 -9 0 -27 -11 -40 -25 -36 -35 -36 -115 0 -150
13 -14 35 -25 47 -25 13 0 30 -9 38 -20 8 -11 20 -20 28 -20 7 0 44 -31 82
-70 50 -50 76 -70 95 -70 18 0 25 5 25 20 0 22 -16 27 -22 8 -3 -7 -46 30 -97
81 -68 69 -95 90 -101 81 -6 -11 -16 -6 -40 20 -25 27 -33 31 -40 20 -5 -8
-12 -11 -17 -7 -4 5 -1 12 7 18 13 8 13 10 0 19 -13 9 -13 11 0 20 13 8 13 11
1 19 -11 7 -9 14 14 36 20 21 29 25 35 15 6 -9 25 4 70 50 33 34 64 59 68 55
4 -4 1 -10 -5 -12 -24 -9 -13 -23 17 -23 30 0 41 14 18 23 -7 2 -10 8 -6 12 4
4 15 0 24 -10 15 -14 15 -18 3 -26 -12 -8 -12 -10 0 -18 12 -8 12 -12 -3 -26
-15 -16 -18 -15 -46 15 -17 18 -34 30 -38 26 -3 -4 0 -11 8 -16 8 -5 11 -12 7
-17 -5 -4 -12 -1 -17 7 -5 8 -12 11 -16 8 -3 -4 1 -15 11 -24 14 -14 18 -15
25 -3 5 7 12 10 17 6 4 -5 1 -12 -7 -17 -8 -5 -11 -12 -7 -17 5 -4 12 -1 17 7
7 12 13 10 30 -10 18 -20 23 -22 31 -10 8 13 10 13 18 0 8 -12 13 -10 31 10
18 20 23 22 31 10 8 -13 10 -13 18 0 6 8 13 11 18 7 4 -5 1 -12 -6 -17 -12 -7
-11 -11 3 -25 16 -16 18 -16 37 6 17 20 22 21 30 9 8 -13 10 -13 19 0 9 13 11
13 20 0 9 -13 11 -13 20 0 9 13 11 13 20 0 9 -13 11 -13 20 0 9 13 11 13 20 0
9 -13 11 -13 19 0 6 8 13 11 16 8 4 -4 -10 -23 -30 -44 -29 -29 -39 -34 -46
-23 -8 12 -11 12 -19 -1 -9 -13 -11 -13 -19 0 -8 12 -13 11 -30 -9 l-21 -24
-21 24 c-17 20 -22 21 -30 9 -8 -13 -10 -13 -19 0 -9 13 -11 13 -20 0 -9 -13
-11 -13 -20 0 -9 13 -11 13 -20 0 -9 -13 -11 -13 -19 0 -8 12 -13 10 -31 -10
-18 -20 -23 -22 -31 -10 -8 13 -10 13 -19 0 -9 -13 -11 -13 -20 0 -9 13 -11
13 -19 1 -8 -12 -12 -11 -27 3 -14 15 -15 19 -3 27 12 8 12 10 -1 18 -8 6 -11
13 -7 17 4 4 16 -3 27 -15 18 -21 21 -22 35 -7 15 14 14 18 -10 42 -22 22 -29
24 -36 13 -8 -12 -10 -12 -18 0 -7 11 -17 6 -45 -23 -34 -34 -36 -38 -21 -53
14 -14 18 -14 25 -2 5 7 12 10 17 6 4 -5 1 -12 -6 -16 -10 -7 -2 -20 34 -56
34 -34 49 -44 55 -35 9 15 160 -131 160 -155 0 -8 5 -15 10 -15 6 0 10 -12 10
-26 0 -29 31 -67 38 -46 5 16 39 16 45 0 2 -7 8 -10 12 -6 4 4 -6 21 -24 37
-35 33 -38 41 -16 41 25 0 65 46 65 75 0 14 -4 25 -10 25 -5 0 -10 14 -10 30
0 21 -5 30 -16 30 -20 0 -49 -29 -39 -38 4 -4 10 -1 12 6 7 19 23 14 23 -8 0
-28 -26 -25 -56 5 l-25 25 27 27 c18 18 29 23 32 15 2 -7 17 -12 33 -12 26 0
29 -4 29 -30 0 -16 5 -30 10 -30 6 0 10 -22 10 -48 0 -36 -5 -51 -20 -62 -21
-15 -28 -50 -10 -50 6 0 10 -9 10 -20 0 -19 7 -20 110 -20 67 0 110 4 110 10
0 6 -11 10 -25 10 -16 0 -39 13 -60 35 -34 33 -35 37 -35 109 0 50 4 76 13 79
7 2 8 8 3 13 -5 5 -11 4 -13 -3 -3 -8 -22 -13 -44 -13 -32 0 -39 3 -39 20 0
17 -7 20 -40 20 -22 0 -40 5 -40 10 0 6 9 10 20 10 11 0 20 5 20 10 0 6 14 10
30 10 27 0 30 -3 30 -30 0 -20 5 -30 15 -30 25 0 65 46 65 75 0 14 5 25 10 25
6 0 10 18 10 40 l0 40 -80 0 c-47 0 -80 4 -80 10 0 6 -7 10 -16 10 -22 0 -53
32 -36 38 6 2 12 17 12 33 0 22 -5 29 -20 29 -11 0 -20 5 -20 10 0 6 23 10 50
10 28 0 50 5 50 10 0 6 16 10 35 10 36 0 85 -35 85 -60 0 -16 47 -60 65 -60
10 0 15 10 15 30 0 17 5 30 10 30 23 0 9 -53 -21 -81 -18 -16 -28 -33 -24 -37
4 -4 10 -1 12 6 3 6 13 12 24 12 10 0 19 5 19 10 0 6 5 10 10 10 14 0 12 -38
-2 -43 -7 -2 -10 -8 -6 -12 17 -18 38 25 38 79 l0 56 36 0 c35 0 64 -18 64
-40 0 -6 -45 -55 -100 -110 -55 -55 -100 -106 -100 -115 0 -8 -4 -15 -10 -15
-5 0 -10 -9 -10 -20 0 -11 -4 -20 -10 -20 -5 0 -10 -25 -10 -55 0 -50 3 -59
35 -90 21 -22 44 -35 60 -35 14 0 25 -4 25 -10 0 -5 18 -10 40 -10 22 0 40 -4
40 -10 0 -6 67 -10 180 -10 113 0 180 4 180 10 0 6 11 10 25 10 38 0 75 42 75
85 0 19 -4 35 -10 35 -5 0 -10 7 -10 15 0 9 -32 47 -70 85 l-71 70 56 56 c31
31 59 53 63 49 4 -4 1 -10 -5 -12 -20 -7 -15 -23 7 -23 11 0 20 5 20 10 0 6 9
10 20 10 11 0 20 5 20 10 0 6 -9 10 -20 10 -11 0 -20 5 -20 10 0 15 29 12 46
-4 21 -21 17 -46 -6 -46 -11 0 -20 -4 -20 -10 0 -5 -9 -10 -20 -10 -22 0 -27
-16 -8 -22 9 -3 8 -9 -5 -22 -16 -17 -18 -17 -34 0 -13 13 -14 19 -5 22 6 2
12 12 12 23 0 23 -6 24 -26 5 -16 -17 -19 -66 -4 -66 6 0 10 -7 10 -16 0 -8
28 -42 62 -76 47 -47 58 -62 47 -69 -12 -8 -12 -11 1 -20 11 -8 12 -12 3 -16
-7 -2 -13 -13 -13 -24 0 -16 7 -19 40 -19 22 0 40 -4 40 -10 0 -6 33 -10 80
-10 47 0 80 4 80 10 0 6 18 10 40 10 22 0 40 5 40 10 0 6 7 10 16 10 9 0 25
10 35 22 l19 21 19 -21 c27 -32 94 -30 126 3 22 21 25 33 25 100 0 43 -4 75
-10 75 -5 0 -10 9 -10 20 0 11 5 20 10 20 15 0 12 29 -4 46 -8 8 -22 14 -30
14 -9 0 -16 7 -16 15 0 26 -107 125 -135 125 -14 0 -25 -4 -25 -10 0 -5 -9
-10 -20 -10 -11 0 -20 -4 -20 -10 0 -5 -9 -10 -20 -10 -13 0 -20 7 -20 20 0
13 -7 20 -20 20 -11 0 -20 5 -20 10 0 6 -9 10 -20 10 -11 0 -20 5 -20 10 0 6
-25 10 -56 10 -49 0 -59 4 -84 30 -17 18 -38 30 -54 30 -14 0 -26 5 -26 10 0
6 -9 10 -20 10 -16 0 -20 7 -20 30 0 17 -4 30 -10 30 -5 0 -10 9 -10 20 0 11
-4 20 -10 20 -5 0 -10 7 -10 16 0 28 -27 44 -74 44 -25 0 -46 5 -46 10 0 6
-13 10 -30 10 -23 0 -30 4 -30 20 0 17 -7 20 -40 20 -22 0 -40 -4 -40 -10z
m60 -30 c0 -15 -7 -20 -26 -20 -17 0 -41 -16 -76 -52 -30 -31 -53 -48 -56 -40
-6 19 -22 14 -22 -8 0 -30 28 -24 63 13 19 20 32 27 34 20 3 -7 13 -13 23 -13
10 0 20 -6 22 -12 3 -9 10 -8 22 5 10 10 15 21 11 25 -4 4 -10 1 -12 -5 -9
-24 -23 -13 -23 17 0 23 4 30 20 30 11 0 20 5 20 10 0 6 14 10 30 10 17 0 30
-4 30 -10 0 -5 21 -10 46 -10 47 0 74 -16 74 -44 0 -9 5 -16 10 -16 6 0 10 -9
10 -19 0 -11 6 -21 12 -23 25 -9 -20 -38 -56 -38 -29 0 -36 4 -36 19 0 11 -6
22 -12 25 -10 5 -10 7 0 12 24 11 12 24 -24 24 -19 0 -42 -6 -50 -14 -19 -20
-18 -26 6 -26 11 0 20 5 20 10 0 6 5 10 10 10 6 0 10 -9 10 -20 0 -11 5 -20
10 -20 6 0 10 -4 10 -10 0 -5 -9 -10 -20 -10 -11 0 -20 -4 -20 -10 0 -6 -30
-10 -70 -10 -40 0 -70 -4 -70 -10 0 -5 -9 -10 -20 -10 -11 0 -20 -4 -20 -10 0
-5 -9 -10 -20 -10 -11 0 -20 -4 -20 -10 0 -6 -33 -10 -80 -10 -47 0 -80 4 -80
10 0 6 -7 10 -16 10 -15 0 -44 23 -44 34 0 3 49 6 109 6 78 0 111 -4 114 -12
2 -7 8 -10 12 -6 4 4 0 14 -8 23 -12 11 -37 15 -101 15 -51 0 -86 4 -86 10 0
6 14 10 30 10 17 0 30 5 30 10 0 6 9 10 20 10 11 0 20 5 20 10 0 6 -4 10 -10
10 -5 0 -10 9 -10 19 0 11 -6 21 -12 23 -9 3 -8 9 4 21 18 18 68 23 68 7 0 -5
9 -10 19 -10 11 0 21 -6 24 -12 2 -8 8 -9 13 -4 5 5 4 11 -3 13 -23 8 -13 23
15 23 16 0 34 8 42 20 8 11 22 20 32 20 10 0 18 5 18 10 0 6 9 10 20 10 13 0
20 -7 20 -20z m-497 -132 c4 -10 8 -9 16 2 10 13 12 13 21 0 9 -13 11 -13 20
0 9 13 11 13 20 0 9 -13 11 -13 20 0 9 13 11 13 20 0 9 -13 11 -13 19 0 6 8
13 11 17 8 3 -4 -1 -15 -11 -24 -14 -14 -18 -15 -25 -4 -7 11 -16 6 -40 -20
-25 -27 -33 -31 -40 -20 -7 12 -13 10 -30 -10 -18 -20 -23 -22 -31 -10 -8 13
-10 13 -19 0 -9 -13 -11 -13 -19 0 -8 12 -13 10 -31 -10 -17 -20 -23 -22 -30
-10 -7 12 -13 10 -30 -10 -18 -20 -23 -22 -31 -10 -8 13 -10 13 -19 0 -9 -13
-11 -13 -20 0 -9 13 -11 13 -20 0 -9 -13 -11 -13 -19 0 -8 12 -13 11 -31 -9
-11 -14 -23 -22 -26 -18 -3 3 11 22 31 43 29 28 39 34 45 23 7 -10 13 -8 30
11 17 20 23 22 30 10 7 -12 13 -10 30 10 17 20 23 22 30 10 7 -12 13 -10 30
10 18 20 23 22 30 10 8 -13 12 -11 27 7 21 26 29 28 36 11z m637 -83 c0 -9
-81 -96 -180 -195 -99 -99 -180 -186 -180 -195 0 -8 -4 -15 -10 -15 -5 0 -10
-18 -10 -40 0 -22 5 -40 10 -40 6 0 10 5 10 10 0 6 9 10 20 10 11 0 20 -4 20
-10 0 -5 9 -10 20 -10 11 0 20 -4 20 -10 0 -5 23 -10 50 -10 28 0 50 -4 50
-10 0 -6 33 -10 80 -10 47 0 80 4 80 10 0 6 7 10 15 10 9 0 27 11 40 25 25 24
33 55 15 55 -5 0 -10 -9 -10 -20 0 -11 -2 -20 -5 -20 -3 0 -35 29 -70 65 -55
55 -65 70 -65 100 0 19 5 35 10 35 6 0 10 7 10 15 0 20 105 125 125 125 8 0
15 5 15 10 0 6 9 10 20 10 11 0 20 5 20 10 0 6 14 10 30 10 17 0 30 5 30 10 0
6 37 10 90 10 53 0 90 -4 90 -10 0 -5 9 -10 20 -10 11 0 20 -4 20 -10 0 -5 7
-10 16 -10 20 0 44 -24 44 -44 0 -9 5 -16 10 -16 6 0 10 -22 10 -50 0 -43 -3
-50 -19 -50 -11 0 -22 -6 -24 -12 -4 -10 -8 -9 -16 2 -10 13 -12 13 -20 0 -6
-8 -13 -11 -17 -7 -4 4 4 17 17 28 16 15 20 23 12 26 -7 3 -13 13 -13 24 0 10
-4 19 -10 19 -5 0 -10 7 -10 16 0 33 -26 44 -104 44 -44 0 -76 -4 -76 -10 0
-5 -13 -10 -30 -10 -16 0 -30 -4 -30 -10 0 -5 -7 -10 -15 -10 -23 0 -125 -106
-125 -130 0 -13 28 -49 70 -90 39 -38 70 -76 70 -85 0 -8 5 -15 10 -15 18 0
10 -31 -15 -55 -13 -14 -36 -25 -50 -25 -14 0 -25 -4 -25 -10 0 -6 -60 -10
-160 -10 -100 0 -160 4 -160 10 0 6 -18 10 -40 10 -22 0 -40 5 -40 10 0 6 -11
10 -25 10 -40 0 -95 61 -95 105 0 19 5 35 10 35 6 0 10 9 10 20 0 11 5 20 10
20 6 0 10 7 10 15 0 9 68 83 150 165 83 82 150 156 150 165 0 11 11 15 40 15
22 0 40 5 40 10 0 6 14 10 30 10 20 0 30 -5 30 -15z m43 3 c4 -10 8 -9 16 2
10 13 12 13 21 0 9 -13 11 -13 19 0 8 12 13 10 31 -10 17 -19 23 -22 30 -11 7
12 11 11 25 -3 10 -9 14 -20 11 -24 -4 -3 -11 0 -16 8 -7 12 -13 10 -30 -10
-17 -20 -23 -22 -30 -10 -7 12 -12 11 -28 -8 -11 -12 -27 -22 -36 -22 -9 0
-16 -4 -16 -10 0 -5 -7 -10 -15 -10 -20 0 -125 -105 -125 -125 0 -8 -4 -15
-10 -15 -5 0 -10 -25 -10 -56 0 -54 1 -56 60 -114 33 -32 60 -61 60 -64 0 -4
-9 -6 -20 -6 -11 0 -20 -4 -20 -10 0 -6 -27 -10 -60 -10 -33 0 -60 4 -60 10 0
6 -22 10 -50 10 -27 0 -50 5 -50 10 0 6 -9 10 -20 10 -11 0 -20 5 -20 10 0 6
-9 10 -20 10 -15 0 -20 7 -20 25 0 19 39 65 165 190 164 165 165 165 210 165
49 0 53 4 29 27 -13 14 -17 14 -24 2 -5 -7 -12 -10 -17 -6 -4 5 -1 13 7 18 11
8 12 12 3 16 -7 2 -13 9 -13 14 0 13 18 11 23 -3z m-203 -13 c0 -3 -11 -17
-25 -30 -13 -14 -27 -25 -30 -25 -10 0 -5 31 8 45 12 14 47 21 47 10z m-80
-45 c0 -34 -5 -37 -26 -15 -13 12 -13 17 -2 29 20 23 28 19 28 -14z m-500 4
c0 -7 -27 -34 -34 -34 -3 0 -6 9 -6 20 0 13 7 20 20 20 11 0 20 -3 20 -6z
m286 -8 c14 -14 20 -46 8 -46 -11 0 -34 29 -34 44 0 20 7 20 26 2z m-246 -12
c0 -4 -10 -15 -22 -26 -19 -16 -20 -21 -8 -28 8 -5 11 -12 7 -17 -5 -4 -12 -1
-18 7 -8 13 -10 13 -18 1 -7 -11 -14 -9 -36 13 -15 15 -24 30 -21 33 3 4 15
-4 26 -17 l20 -23 27 31 c27 30 43 39 43 26z m1315 -79 c25 -24 45 -51 45 -60
0 -8 5 -15 10 -15 6 0 10 -13 10 -30 0 -16 5 -30 10 -30 6 0 10 9 10 20 0 11
5 20 10 20 6 0 10 -9 10 -20 0 -11 -4 -20 -10 -20 -5 0 -10 -13 -10 -30 0 -16
5 -30 10 -30 6 0 10 -29 10 -66 0 -67 -13 -94 -44 -94 -13 0 -16 13 -16 70 0
40 -4 70 -10 70 -5 0 -10 14 -10 30 0 17 -4 30 -10 30 -5 0 -10 14 -10 30 0
17 -4 30 -10 30 -5 0 -10 7 -10 15 0 20 -65 85 -85 85 -8 0 -15 -4 -15 -10 0
-5 5 -10 10 -10 6 0 10 -4 10 -10 0 -5 -9 -10 -20 -10 -27 0 -25 25 3 55 33
36 61 31 112 -20z m-352 -7 c4 -10 8 -9 16 2 5 8 13 11 18 7 4 -5 1 -12 -7
-18 -13 -8 -13 -10 0 -19 13 -9 13 -11 0 -20 -13 -9 -13 -11 -1 -19 12 -8 11
-12 -3 -27 -15 -14 -19 -15 -27 -3 -8 12 -10 12 -18 -1 -6 -8 -13 -11 -18 -7
-4 5 -1 12 7 18 13 8 13 10 0 19 -13 9 -13 11 0 20 13 8 13 11 1 19 -12 8 -12
11 0 25 17 19 26 20 32 4z m77 -27 c0 -11 6 -21 13 -24 6 -2 9 -8 5 -12 -9
-10 -38 19 -38 39 0 9 5 16 10 16 6 0 10 -9 10 -19z m180 -31 c0 -5 14 -10 30
-10 26 0 30 -3 30 -29 0 -16 -6 -32 -12 -34 -10 -4 -9 -8 2 -16 12 -8 11 -13
-10 -31 -20 -18 -22 -23 -10 -31 13 -8 13 -10 0 -19 -13 -9 -13 -11 0 -19 12
-8 10 -13 -10 -31 -19 -17 -21 -23 -11 -30 11 -6 8 -14 -14 -35 -22 -23 -29
-25 -37 -14 -7 11 -11 11 -15 2 -2 -7 -18 -13 -34 -13 -16 0 -29 -4 -29 -10 0
-6 -27 -10 -60 -10 -33 0 -60 4 -60 10 0 6 -18 10 -40 10 -39 0 -53 12 -27 24
10 5 10 7 0 12 -23 10 -13 24 17 24 17 0 30 -4 30 -10 0 -6 33 -10 79 -10 54
0 81 -4 84 -12 2 -8 8 -9 13 -4 5 5 4 11 -3 13 -7 3 -13 9 -13 14 0 14 38 11
42 -3 3 -8 14 -3 32 15 l27 27 -26 26 c-23 23 -27 24 -41 9 -9 -9 -13 -19 -9
-23 4 -4 10 -1 12 6 7 19 23 14 23 -8 0 -17 -7 -20 -40 -20 -22 0 -40 -4 -40
-10 0 -6 -27 -10 -60 -10 -33 0 -60 4 -60 10 0 6 -16 10 -35 10 -30 0 -45 9
-91 55 l-55 55 25 25 c25 25 96 36 96 15 0 -6 47 -10 120 -10 73 0 120 4 120
10 0 6 16 10 36 10 31 0 64 18 64 34 0 3 -12 6 -26 6 -23 0 -54 20 -54 34 0 3
9 6 20 6 11 0 20 -4 20 -10z m-1040 -66 c0 -15 -23 -44 -34 -44 -11 0 -6 31 7
45 16 19 27 19 27 -1z m-240 -34 c0 -16 5 -30 10 -30 6 0 10 14 10 30 0 23 4
30 20 30 27 0 25 -26 -5 -55 -29 -30 -55 -32 -55 -5 0 11 -4 20 -10 20 -5 0
-10 9 -10 20 0 13 7 20 20 20 16 0 20 -7 20 -30z m20 -86 c0 -8 -7 -22 -15
-30 -13 -14 -17 -14 -30 0 -20 20 -19 26 5 26 11 0 20 5 20 10 0 6 5 10 10 10
6 0 10 -7 10 -16z m63 -56 c4 -10 8 -9 16 2 5 8 13 11 17 8 3 -4 -1 -14 -10
-23 -14 -15 -18 -15 -31 -1 -8 8 -15 17 -15 20 0 11 18 6 23 -6z m1292 -13
c29 -28 31 -35 10 -35 -15 0 -65 42 -65 55 0 14 34 2 55 -20z"/>
<path d="M880 1190 c0 -5 5 -10 10 -10 6 0 10 -9 10 -20 0 -13 7 -20 20 -20
23 0 27 25 6 46 -17 16 -46 19 -46 4z"/>
<path d="M1040 1130 c0 -5 9 -10 20 -10 11 0 20 5 20 10 0 6 -9 10 -20 10 -11
0 -20 -4 -20 -10z"/>
<path d="M607 1097 c-15 -18 -19 -20 -27 -7 -7 12 -12 10 -30 -10 -17 -20 -23
-22 -30 -10 -7 12 -13 10 -30 -10 -17 -19 -23 -22 -30 -11 -7 12 -11 11 -25
-3 -10 -9 -14 -20 -11 -24 4 -3 11 0 17 8 8 13 10 13 18 0 8 -12 13 -10 31 10
17 20 23 22 30 10 7 -12 13 -10 30 10 18 20 23 22 31 10 8 -13 10 -13 19 0 9
13 11 13 19 0 8 -12 13 -10 31 10 17 19 23 22 30 11 7 -12 11 -11 25 3 10 9
14 20 11 24 -4 3 -11 0 -17 -8 -8 -13 -10 -13 -19 0 -9 13 -11 13 -21 0 -8
-11 -12 -12 -16 -2 -7 17 -15 15 -36 -11z m33 -7 c0 -5 -4 -10 -10 -10 -5 0
-10 5 -10 10 0 6 5 10 10 10 6 0 10 -4 10 -10z"/>
<path d="M380 1030 c0 -5 5 -10 10 -10 6 0 10 5 10 10 0 6 -4 10 -10 10 -5 0
-10 -4 -10 -10z"/>
<path d="M1691 804 c-18 -21 -6 -30 14 -11 8 9 15 18 15 21 0 11 -15 5 -29
-10z"/>
<path d="M1340 1034 c0 -3 7 -13 16 -21 13 -14 17 -14 25 -2 8 12 10 12 18 -1
6 -8 13 -11 17 -8 3 4 -1 15 -11 24 -14 15 -18 15 -27 3 -7 -11 -11 -11 -15
-1 -5 12 -23 17 -23 6z"/>
<path d="M1023 695 c-24 -25 -43 -49 -43 -55 0 -17 26 -40 44 -40 9 0 16 -4
16 -10 0 -5 23 -10 50 -10 28 0 50 -4 50 -10 0 -5 18 -10 40 -10 30 0 40 4 40
16 0 8 -18 33 -40 54 -32 31 -40 46 -40 74 0 35 -1 36 -37 35 -31 0 -46 -8
-80 -44z"/>
<path d="M1520 871 c0 -5 6 -12 13 -14 9 -4 9 -8 -2 -15 -12 -9 -12 -13 3 -27
9 -10 20 -14 24 -11 3 4 0 11 -8 17 -13 8 -13 10 -1 18 12 8 12 12 -2 25 -18
18 -27 20 -27 7z"/>
<path d="M1412 725 c-11 -13 -8 -20 14 -42 18 -18 29 -23 32 -15 4 14 62 16
62 2 0 -6 40 -10 100 -10 60 0 100 4 100 10 0 20 33 9 61 -21 16 -18 33 -29
37 -25 3 4 0 11 -8 17 -13 8 -13 10 0 19 13 9 13 11 0 19 -12 8 -11 13 9 31
14 11 21 23 17 27 -4 4 -11 1 -17 -7 -8 -13 -10 -13 -20 0 -8 11 -12 12 -16 3
-2 -7 -13 -13 -24 -13 -10 0 -19 -4 -19 -10 0 -5 -9 -10 -20 -10 -11 0 -20 -4
-20 -10 0 -6 -33 -10 -80 -10 -47 0 -80 4 -80 10 0 6 -17 10 -38 10 -26 0 -42
6 -52 20 -17 24 -21 24 -38 5z m28 -15 c0 -5 -4 -10 -10 -10 -5 0 -10 5 -10
10 0 6 5 10 10 10 6 0 10 -4 10 -10z m360 0 c0 -5 -4 -10 -10 -10 -5 0 -10 5
-10 10 0 6 5 10 10 10 6 0 10 -4 10 -10z m0 -40 c0 -5 -4 -10 -10 -10 -5 0
-10 5 -10 10 0 6 5 10 10 10 6 0 10 -4 10 -10z"/>
<path d="M1771 564 c-18 -21 -6 -30 14 -11 8 9 15 18 15 21 0 11 -15 5 -29
-10z"/>
<path d="M300 890 c0 -5 5 -10 10 -10 6 0 10 5 10 10 0 6 -4 10 -10 10 -5 0
-10 -4 -10 -10z"/>
<path d="M211 844 c-18 -21 -6 -30 14 -11 8 9 15 18 15 21 0 11 -15 5 -29 -10z"/>
<path d="M380 851 c0 -5 6 -11 13 -14 8 -3 4 -11 -12 -26 -13 -11 -21 -24 -17
-28 4 -4 11 -1 17 7 8 13 10 13 18 0 8 -12 13 -10 31 10 18 20 23 22 31 10 8
-13 10 -13 19 0 9 13 11 13 20 0 9 -13 11 -13 20 0 9 13 11 13 19 0 6 -8 13
-11 17 -8 3 4 -6 19 -20 33 l-27 27 -20 -23 c-17 -20 -22 -21 -30 -9 -8 13
-10 13 -18 0 -8 -12 -13 -11 -29 8 -20 23 -32 28 -32 13z m140 -21 c0 -5 -4
-10 -10 -10 -5 0 -10 5 -10 10 0 6 5 10 10 10 6 0 10 -4 10 -10z m-100 -20 c0
-5 -4 -10 -10 -10 -5 0 -10 5 -10 10 0 6 5 10 10 10 6 0 10 -4 10 -10z"/>
<path d="M592 824 c-11 -12 -10 -17 3 -30 14 -15 17 -14 36 7 17 20 22 21 30
9 8 -13 10 -13 19 0 9 13 11 13 19 1 8 -12 12 -12 26 3 10 9 14 20 11 24 -4 3
-11 0 -17 -8 -8 -13 -10 -13 -19 0 -9 13 -11 13 -20 0 -9 -13 -11 -13 -20 0
-9 13 -11 13 -21 0 -8 -11 -12 -12 -16 -2 -6 16 -15 15 -31 -4z m28 -14 c0 -5
-4 -10 -10 -10 -5 0 -10 5 -10 10 0 6 5 10 10 10 6 0 10 -4 10 -10z"/>
<path d="M200 795 c0 -11 71 -77 77 -72 3 3 -11 22 -31 41 -34 34 -46 42 -46
31z"/>
<path d="M320 790 c0 -5 5 -10 10 -10 6 0 10 5 10 10 0 6 -4 10 -10 10 -5 0
-10 -4 -10 -10z"/>
<path d="M360 675 c0 -10 112 -117 117 -112 3 3 -20 31 -51 61 -52 53 -66 63
-66 51z"/>
<path d="M240 650 c0 -5 -13 -10 -30 -10 -16 0 -30 -4 -30 -10 0 -5 -7 -10
-16 -10 -25 0 -44 -26 -44 -60 0 -34 19 -60 44 -60 9 0 16 -4 16 -10 0 -5 14
-10 30 -10 17 0 30 -4 30 -10 0 -5 18 -10 40 -10 22 0 40 -4 40 -10 0 -6 43
-10 110 -10 67 0 110 4 110 10 0 6 -4 10 -10 10 -5 0 -10 9 -10 20 0 17 -7 20
-45 20 -44 0 -50 4 -115 70 -38 39 -76 70 -85 70 -8 0 -15 5 -15 10 0 6 -4 10
-10 10 -5 0 -10 -4 -10 -10z"/>
<path d="M2010 520 c-13 -18 -26 -20 -112 -20 -59 0 -98 -4 -98 -10 0 -5 -18
-10 -40 -10 -22 0 -40 -4 -40 -10 0 -6 -40 -10 -100 -10 -60 0 -100 4 -100 10
0 15 -70 12 -86 -4 -8 -8 -14 -17 -14 -20 0 -3 104 -6 230 -6 147 0 230 4 230
10 0 6 18 10 40 10 22 0 40 5 40 10 0 6 12 10 26 10 29 0 54 21 54 44 0 22
-13 20 -30 -4z"/>
</g>
</svg>
